<svg width="48" height="48" viewBox="0 0 48 48" fill="none" xmlns="http://www.w3.org/2000/svg">
<path d="M16.2233 44.9917C18.1553 44.9917 19.7215 43.4254 19.7215 41.4934C19.7215 39.5614 18.1553 37.9951 16.2233 37.9951C14.2913 37.9951 12.7249 39.5613 12.7249 41.4934C12.7249 43.4254 14.2913 44.9917 16.2233 44.9917Z" fill="#06616E"/>
<path d="M40.7143 44.9917C42.6463 44.9917 44.2126 43.4254 44.2126 41.4934C44.2126 39.5614 42.6463 37.9951 40.7143 37.9951C38.7823 37.9951 37.2161 39.5613 37.2161 41.4934C37.2161 43.4254 38.7823 44.9917 40.7143 44.9917Z" fill="#06616E"/>
<path d="M46.9228 9.2159C46.677 8.9153 46.3674 8.6733 46.0165 8.5073C45.6656 8.3413 45.2819 8.2555 44.8937 8.2561H11.6195L10.9493 4.4536C10.8778 4.0486 10.6659 3.6817 10.3508 3.4174C10.0357 3.1531 9.63758 3.0082 9.22628 3.0083H2.22928C1.76528 3.0083 1.32038 3.1926 0.99228 3.5207C0.66418 3.8488 0.47998 4.2936 0.47998 4.7576C0.47998 5.2215 0.66428 5.6664 0.99228 5.9945C1.32038 6.3225 1.76528 6.5068 2.22928 6.5068H7.75908L12.7511 34.799C12.8226 35.204 13.0345 35.5709 13.3496 35.8351C13.6646 36.0995 14.0628 36.2443 14.4741 36.2442H42.4622C42.9261 36.2442 43.3711 36.06 43.6992 35.7319C44.0273 35.4038 44.2115 34.9588 44.2115 34.4949C44.2115 34.0311 44.0272 33.5861 43.6992 33.2581C43.3712 32.9301 42.9261 32.7458 42.4622 32.7458H15.9413L15.3246 29.2472H41.7451C42.3517 29.2464 42.9395 29.0361 43.4088 28.6517C43.8781 28.2675 44.2004 27.7328 44.3208 27.1383L47.4694 11.395C47.5453 11.0138 47.5357 10.6207 47.4412 10.244C47.3466 9.8671 47.1696 9.5161 46.9228 9.2159Z" fill="#06616E"/>
</svg>
